# xmcd
#
# Track frame offsets: 
#        150
#        12752
#        23027
#        40633
#        52090
#        70118
#        88571
#        100866
#        122656
#        134682
#        154657
#        179857
#        216857
#        243032
#
# Disc length: 3637 seconds
#
# Revision: 0
# Processed by: cddbd v1.5.2PL0 Copyright (c) Steve Scherf et al.
# Submitted via: ExactAudioCopy v0.95a5
#
DISCID=b90e330e
DTITLE=古典殿堂起舞集 - 古典圆舞曲名曲
DYEAR=2002
DGENRE=Acid Jazz
TTITLE0=杜鹃圆舞曲
TTITLE1=匈牙利圆舞曲
TTITLE2=皇帝圆舞曲
TTITLE3=渤拉姆斯圆舞曲
TTITLE4=维也纳森林
TTITLE5=风流寡妇
TTITLE6=托塞里小夜曲 
TTITLE7=蝙蝠圆舞曲
TTITLE8=闲聊波尔卡
TTITLE9=安妮波尔卡
TTITLE10=风流寡妇(古典版)
TTITLE11=溜冰圆舞曲
TTITLE12=春之声
TTITLE13=多脑河之波
EXTD=
EXTT0=
EXTT1=
EXTT2=
EXTT3=
EXTT4=
EXTT5=
EXTT6=
EXTT7=
EXTT8=
EXTT9=
EXTT10=
EXTT11=
EXTT12=
EXTT13=
PLAYORDER=
